<?xml version="1.0" encoding="utf-8"?>
<!-- Generator: Adobe Illustrator 25.0.0, SVG Export Plug-In . SVG Version: 6.00 Build 0)  -->
<svg version="1.1" id="图层_1" xmlns="http://www.w3.org/2000/svg" xmlns:xlink="http://www.w3.org/1999/xlink" x="0px" y="0px"
	 viewBox="0 0 60 10" style="enable-background:new 0 0 60 10;" xml:space="preserve">
<style type="text/css">
	.st0{fill-rule:evenodd;clip-rule:evenodd;fill:url(#SVGID_1_);}
</style>
<linearGradient id="SVGID_1_" gradientUnits="userSpaceOnUse" x1="-912.992" y1="489.6907" x2="-911.992" y2="489.6907" gradientTransform="matrix(58.0334 0 0 -9.5683 52985.0234 4690.4897)">
	<stop  offset="0" style="stop-color:#FFDE00"/>
	<stop  offset="0" style="stop-color:#C598C4"/>
	<stop  offset="3.111937e-02" style="stop-color:#C272AC"/>
	<stop  offset="1" style="stop-color:#131D3D"/>
</linearGradient>
<path class="st0" d="M54,8.1l-2.6,1.6c-0.5,0.3-0.8,0.1-0.6-0.5l0.7-2.9l-2.3-1.9c-0.4-0.4-0.3-0.7,0.2-0.7l3-0.2l1.1-2.8
	c0.2-0.5,0.6-0.5,0.8,0l1.1,2.8l3,0.2c0.6,0,0.7,0.4,0.2,0.7l-2.3,1.9l0.7,2.9c0.1,0.5-0.1,0.8-0.6,0.5L54,8.1L54,8.1z M6,8.1
	L3.5,9.6C3,9.9,2.7,9.7,2.8,9.2l0.7-2.9L1.3,4.3C0.8,4,0.9,3.6,1.5,3.6l3-0.2l1.1-2.8c0.2-0.5,0.6-0.5,0.8,0l1.1,2.8l3,0.2
	c0.6,0,0.7,0.4,0.2,0.7L8.5,6.3l0.7,2.9c0.1,0.5-0.1,0.8-0.6,0.5L6,8.1L6,8.1z M18,8.1l-2.6,1.6c-0.5,0.3-0.8,0.1-0.6-0.5l0.7-2.9
	l-2.3-1.9c-0.4-0.4-0.3-0.7,0.2-0.7l3-0.2l1.1-2.8c0.2-0.5,0.6-0.5,0.8,0l1.1,2.8l3,0.2c0.6,0,0.7,0.4,0.2,0.7l-2.3,1.9l0.7,2.9
	c0.1,0.5-0.1,0.8-0.6,0.5L18,8.1L18,8.1z M30,8.1l-2.6,1.6c-0.5,0.3-0.8,0.1-0.6-0.5l0.7-2.9l-2.3-1.9c-0.4-0.4-0.3-0.7,0.2-0.7
	l3-0.2l1.1-2.8c0.2-0.5,0.6-0.5,0.8,0l1.1,2.8l3,0.2c0.6,0,0.7,0.4,0.2,0.7l-2.3,1.9l0.7,2.9c0.1,0.5-0.1,0.8-0.6,0.5L30,8.1L30,8.1
	z M42,8.1l-2.6,1.6c-0.5,0.3-0.8,0.1-0.6-0.5l0.7-2.9l-2.3-1.9c-0.4-0.4-0.3-0.7,0.2-0.7l3-0.2l1.1-2.8c0.2-0.5,0.6-0.5,0.8,0
	l1.1,2.8l3,0.2c0.6,0,0.7,0.4,0.2,0.7l-2.3,1.9l0.7,2.9c0.1,0.5-0.1,0.8-0.6,0.5L42,8.1L42,8.1z"/>
</svg>
