<svg height="512pt" viewBox="0 0 512 512" width="512pt" xmlns="http://www.w3.org/2000/svg"><path d="m512 198.128906v18.011719h-512v-18.199219l37.261719-110.78125 8.75-26.019531h419.917969zm0 0" fill="#ff8900"/><path d="m512 198.128906v18.011719h-256v-155h209.929688zm0 0" fill="#e67500"/><path d="m15.089844 219h481.820312v293h-481.820312zm0 0" fill="#ffc473"/><path d="m256 219h240.910156v293h-240.910156zm0 0" fill="#ffb74f"/><path d="m97.980469 219h316.039062v293h-316.039062zm0 0" fill="#8a6746"/><path d="m256 219h158.019531v293h-158.019531zm0 0" fill="#684f37"/><path d="m0 200.667969v32.257812c0 28.277344 22.921875 51.203125 51.199219 51.203125 28.277343 0 51.199219-22.925781 51.199219-51.203125v-32.257812zm0 0" fill="#ff633d"/><path d="m102.398438 200.667969v32.257812c0 28.277344 22.925781 51.203125 51.203124 51.203125 28.277344 0 51.199219-22.925781 51.199219-51.203125v-32.257812zm0 0" fill="#f0e7df"/><path d="m307.199219 200.671875v32.257813c0 14.128906-5.730469 26.929687-15 36.199218-9.257813 9.269532-22.058594 15-36.199219 15-28.28125 0-51.199219-22.929687-51.199219-51.199218v-32.257813zm0 0" fill="#ff633d"/><path d="m191.128906 365.167969h29.667969v29.667969h-29.667969zm0 0" fill="#f0e7df"/><path d="m291.203125 365.167969h29.667969v29.667969h-29.667969zm0 0" fill="#dfcdbd"/><path d="m132.328125 75.949219-29.929687 124.722656h-102.398438v-2.730469l37.261719-110.78125 4.410156-11.210937zm0 0" fill="#ff8900"/><path d="m204.800781 200.667969 15.996094-124.71875h-88.46875l-29.929687 124.722656zm0 0" fill="#dfcdbd"/><path d="m512 200.667969v32.257812c0 28.277344-22.921875 51.203125-51.199219 51.203125-28.277343 0-51.199219-22.925781-51.199219-51.203125v-32.257812zm0 0" fill="#e70021"/><path d="m409.601562 200.667969v32.257812c0 28.277344-22.925781 51.203125-51.203124 51.203125-28.277344 0-51.199219-22.925781-51.199219-51.203125v-32.257812zm0 0" fill="#dfcdbd"/><path d="m379.671875 75.949219 29.929687 124.722656h102.398438v-2.730469l-37.261719-110.78125-4.410156-11.210937zm0 0" fill="#e67500"/><path d="m307.199219 200.667969-15.996094-124.71875h88.46875l29.929687 124.722656zm0 0" fill="#c8ad92"/><path d="m256 200.671875h51.199219v32.257813c0 14.128906-5.730469 26.929687-15 36.199218-9.257813 9.269532-22.058594 15-36.199219 15zm0 0" fill="#e70021"/><path d="m16 0h480v75.949219h-480zm0 0" fill="#ff633d"/><path d="m256 0h240v75.949219h-240zm0 0" fill="#e70021"/></svg>