<?xml version="1.0" standalone="no"?><!DOCTYPE svg PUBLIC "-//W3C//DTD SVG 1.1//EN" "http://www.w3.org/Graphics/SVG/1.1/DTD/svg11.dtd"><svg class="icon" width="200px" height="200.00px" viewBox="0 0 1024 1024" version="1.1" xmlns="http://www.w3.org/2000/svg"><path d="M660.288 147.2 660.288 94.208 466.304 94.208c-52.352 0-73.92 110.592-79.616 146.624l-307.2 0 37.184 595.456 355.264 0 38.4-595.456L439.808 240.832C441.728 186.304 466.304 147.2 466.304 147.2L660.288 147.2zM339.136 404.288 129.152 404.288l-5.12-127.488 254.656 0L339.136 404.288zM461.248 404.288 390.656 404.288l37.44-127.488 38.272 0L461.248 404.288z" fill="#d42d2e" /><path d="M830.208 466.688 600.512 466.688c-49.792 0-90.176 40.32-90.176 90.24L510.336 564.48l410.048 0L920.384 556.928C920.384 507.072 880.064 466.688 830.208 466.688z" fill="#d4782c" /><path d="M510.336 755.52c0 49.728 40.384 90.112 90.176 90.112l229.696 0c49.856 0 90.176-40.384 90.176-90.112l0-30.336L510.336 725.184 510.336 755.52z" fill="#d4782c" /><path d="M866.816 589.888c-15.552 0-29.568 6.656-39.36 17.28-9.728-10.56-23.744-17.28-39.36-17.28-14.016 0-26.816 5.44-36.288 14.272-9.6-8.832-22.336-14.272-36.416-14.272-15.744 0-29.888 6.72-39.552 17.6-9.856-10.88-24-17.6-39.744-17.6S606.08 596.672 596.288 607.616C586.496 596.672 572.224 589.888 556.48 589.888c-29.568 0-53.568 23.936-53.568 53.568 0 29.568 24 53.504 53.568 53.504 15.744 0 30.016-6.848 39.808-17.664 9.728 10.816 23.936 17.664 39.68 17.664s29.888-6.72 39.744-17.536c9.664 10.816 23.808 17.536 39.552 17.536 14.144 0 26.816-5.44 36.416-14.336 9.472 8.896 22.336 14.336 36.288 14.336 15.616 0 29.632-6.656 39.36-17.28 9.792 10.56 23.808 17.28 39.36 17.28 29.632 0 53.568-23.936 53.568-53.504C920.384 613.824 896.448 589.888 866.816 589.888z" fill="#398022" /><path d="M64 871.168c10.304 33.984 41.28 58.624 77.888 58.624l740.224 0c36.48 0 67.52-24.64 77.888-58.624L64 871.168z" fill="#64503a" /></svg>