<svg height="512pt" viewBox="-51 0 512 512" width="512pt" xmlns="http://www.w3.org/2000/svg"><path d="m320.992188 126.3125-14.917969-26.035156-.148438.085937c2.191407-1.328125 8.15625-6.128906 9.40625-12.332031.992188-4.898438-.949219-10.75-5.769531-17.386719-10.425781-14.363281-14.007812-28.433593-10.640625-41.816406 4.808594-19.109375 21.992187-27.890625 23.933594-28.828125l13.046875 27.023438.179687-.089844c-.066406.035156-6.742187 3.636718-8.089843 9.347656-1.277344 5.40625 2.476562 12.085938 5.855468 16.738281 12.558594 17.300781 12.800782 32.09375 10.792969 41.460938-4.34375 20.257812-21.683594 30.707031-23.648437 31.832031zm0 0" fill="#c8ad92"/><path d="m384.082031 126.3125-14.921875-26.035156-.144531.085937c2.191406-1.328125 8.152344-6.128906 9.40625-12.332031.988281-4.898438-.953125-10.75-5.769531-17.386719-10.429688-14.363281-14.011719-28.433593-10.644532-41.816406 4.8125-19.109375 21.992188-27.890625 23.933594-28.828125l13.046875 27.023438.179688-.089844c-.066407.035156-6.742188 3.636718-8.089844 9.347656-1.277344 5.40625 2.476563 12.085938 5.855469 16.738281 12.558594 17.300781 12.800781 32.09375 10.792968 41.460938-4.34375 20.257812-21.683593 30.707031-23.644531 31.832031zm0 0" fill="#c8ad92"/><path d="m24.335938 126.3125-14.917969-26.035156-.148438.085937c2.191407-1.328125 8.152344-6.128906 9.40625-12.332031.988281-4.898438-.953125-10.75-5.769531-17.386719-10.429688-14.363281-14.007812-28.433593-10.640625-41.816406 4.808594-19.109375 21.988281-27.890625 23.929687-28.828125l13.050782 27.023438.175781-.089844c-.066406.035156-6.738281 3.636718-8.089844 9.347656-1.277343 5.40625 2.480469 12.085938 5.855469 16.738281 12.558594 17.300781 12.800781 32.09375 10.792969 41.460938-4.34375 20.257812-21.683594 30.707031-23.644531 31.832031zm0 0" fill="#dfcdbd"/><path d="m87.421875 126.3125-14.921875-26.035156-.144531.085937c2.191406-1.328125 8.152343-6.128906 9.40625-12.332031.988281-4.898438-.953125-10.75-5.769531-17.386719-10.429688-14.363281-14.007813-28.433593-10.640626-41.816406 4.808594-19.109375 21.988282-27.890625 23.929688-28.828125l13.050781 27.023438.175781-.089844c-.066406.035156-6.738281 3.636718-8.089843 9.347656-1.277344 5.40625 2.480469 12.085938 5.855469 16.738281 12.558593 17.300781 12.800781 32.09375 10.792968 41.460938-4.34375 20.257812-21.683594 30.707031-23.644531 31.832031zm0 0" fill="#dfcdbd"/><path d="m311.726562 512h-213.707031l28.257813-120.144531h157.195312zm0 0" fill="#8a6746"/><path d="m293.734375 277.277344h-177.71875l24.144531-160.234375h129.429688zm0 0" fill="#f0e7df"/><path d="m293.734375 277.277344h-88.859375v-160.234375h64.714844zm0 0" fill="#dfcdbd"/><path d="m311.726562 512h-106.851562v-120.144531h78.597656zm0 0" fill="#684f37"/><path d="m409.75 247.273438v45.480468c0 71.183594-57.914062 129.105469-129.097656 129.105469h-151.554688c-71.183594 0-129.097656-57.921875-129.097656-129.105469v-45.480468zm0 0" fill="#ff633d"/><path d="m409.75 247.273438v45.480468c0 71.183594-57.914062 129.105469-129.097656 129.105469h-75.777344v-174.585937zm0 0" fill="#e70021"/></svg>