<?xml version="1.0" standalone="no"?><!DOCTYPE svg PUBLIC "-//W3C//DTD SVG 1.1//EN" "http://www.w3.org/Graphics/SVG/1.1/DTD/svg11.dtd"><svg class="icon" width="200px" height="200.00px" viewBox="0 0 1024 1024" version="1.1" xmlns="http://www.w3.org/2000/svg"><path d="M818.802634 226.775541c-96.668297-105.729445-300.203951-106.945626-308.819567-106.945626h-0.77667c-8.615616 0-212.15127 1.216181-308.819567 106.945626a9.037065 9.037065 0 0 0-1.547319 9.843838l302.539981 662.276576c1.46905 3.209031 4.678081 5.280151 8.21223 5.28015s6.74318-2.071119 8.212229-5.28015l302.539981-662.276576a9.025024 9.025024 0 0 0-1.541298-9.843838z"  /><path d="M509.597742 873.398307L253.140169 312.022578c36.768391-25.467545 247.938288-155.85174 512.614111 0.656255l-256.156538 560.719474z" fill="#FFCC66" /><path d="M773.292192 296.170085c-155.123236-91.123236-291.4619-85.79492-379.135278-64.842898-76.185889 18.212606-128.51778 50.16444-148.657008 63.963876l-27.713264-60.652493C310.764252 139.011853 501.042333 137.892004 509.206397 137.892004h0.77667c8.164064 0 198.442145 1.12587 291.413735 96.746566l-28.10461 61.531515z" fill="#EF6354" /><path d="M418.125306 308.307808c-36.792474 0-66.733396 29.934901-66.733396 66.727375s29.940922 66.733396 66.733396 66.733396 66.727375-29.940922 66.727375-66.733396-29.928881-66.727375-66.727375-66.727375z"  /><path d="M418.125306 423.706491c-26.840263 0-48.671308-21.831044-48.671308-48.671308 0-26.834243 21.831044-48.665287 48.671308-48.665286 26.834243 0 48.665287 21.831044 48.665287 48.665286 0 26.840263-21.831044 48.671308-48.665287 48.671308z" fill="#EF6354" /><path d="M557.733208 438.240452c-34.811665 0-63.13302 28.321355-63.13302 63.13904 0 34.805644 28.321355 63.13302 63.13302 63.13302s63.13302-28.327375 63.13302-63.13302c0-34.817686-28.321355-63.13904-63.13302-63.13904z"  /><path d="M557.733208 546.450423c-24.853434 0-45.070931-20.223518-45.070931-45.070931 0-24.853434 20.217498-45.076952 45.070931-45.076952s45.070931 20.217498 45.070931 45.076952c0 24.841392-20.217498 45.070931-45.070931 45.070931z" fill="#EF6354" /><path d="M620.474882 287.885607c-29.48937 0-53.487865 23.992474-53.487864 53.487864s23.992474 53.487865 53.487864 53.487865 53.487865-23.992474 53.487865-53.487865-23.998495-53.487865-53.487865-53.487864z"  /><path d="M620.474882 376.793227c-19.531138 0-35.425776-15.894638-35.425776-35.425776s15.894638-35.425776 35.425776-35.425776 35.425776 15.894638 35.425777 35.425776-15.894638 35.425776-35.425777 35.425776z" fill="#EF6354" /><path d="M512.577987 620.083537c-25.786642 0-46.768768 20.976105-46.768768 46.768768s20.976105 46.768768 46.768768 46.768767c25.780621 0 46.762747-20.976105 46.762747-46.768767s-20.982126-46.768768-46.762747-46.768768z"  /><path d="M512.577987 695.552963c-15.82841 0-28.706679-12.878269-28.706679-28.706679s12.878269-28.706679 28.706679-28.706679c15.822389 0 28.700659 12.878269 28.700658 28.706679s-12.878269 28.706679-28.700658 28.706679z" fill="#EF6354" /><path d="M306.218627 327.345249m-14.028222 0a14.028222 14.028222 0 1 0 28.056444 0 14.028222 14.028222 0 1 0-28.056444 0Z"  /><path d="M517.653434 282.888429m-14.028222 0a14.028222 14.028222 0 1 0 28.056444 0 14.028222 14.028222 0 1 0-28.056444 0Z"  /><path d="M425.831797 508.736783m-14.028222 0a14.028222 14.028222 0 1 0 28.056444 0 14.028222 14.028222 0 1 0-28.056444 0Z"  /><path d="M650.89746 447.271496m-14.028222 0a14.028222 14.028222 0 1 0 28.056444 0 14.028222 14.028222 0 1 0-28.056444 0Z"  /><path d="M517.653434 769.378739m-14.028222 0a14.028222 14.028222 0 1 0 28.056444 0 14.028222 14.028222 0 1 0-28.056444 0Z"  /></svg>