<svg height="512pt" viewBox="0 -46 512 512" width="512pt" xmlns="http://www.w3.org/2000/svg"><path d="m466.449219 335.550781h-253.257813c.457032-69.539062 56.96875-125.777343 126.628906-125.777343h.121094c69.589844.058593 126.039063 56.277343 126.507813 125.777343zm0 0" fill="#ffb74d"/><path d="m466.449219 335.550781h-126.507813v-125.777343c69.589844.058593 126.039063 56.277343 126.507813 125.777343zm0 0" fill="#ff9a00"/><path d="m481.449219 335.453125c-.25-37.632813-15.097657-72.972656-41.800781-99.511719-26.679688-26.507812-62.089844-41.140625-99.707032-41.167968h-.121094c-37.671874 0-73.121093 14.628906-99.839843 41.167968-26.699219 26.539063-41.539063 61.878906-41.789063 99.511719l-.113281 15.097656h283.472656zm-252.140625-14.902344c7.75-54.019531 54.480468-95.777343 110.511718-95.777343h.121094c55.96875.058593 102.636719 41.796874 110.378906 95.777343zm0 0" fill="#ff8900"/><path d="m418.328125 335.410156c-.046875-5.078125-.589844-10.046875-1.578125-14.859375-7.289062-35.75-39.070312-62.828125-76.808594-62.890625h-.121094c-37.800781 0-69.640624 27.101563-76.941406 62.890625-.988281 4.8125-1.527344 9.78125-1.578125 14.859375l-.152343 15.140625h157.332031zm-124.4375-14.859375c6.550781-19.089843 24.71875-32.890625 45.929687-32.890625h.121094c21.148438.050782 39.257813 13.84375 45.796875 32.890625zm0 0" fill="#ff8900"/><path d="m15 .00390625h453.679688v29.99999975h-453.679688zm0 0" fill="#009100"/><path d="m15 63.441406h42.050781v30h-42.050781zm0 0" fill="#009100"/><path d="m167 63.441406h301.679688v30h-301.679688zm0 0" fill="#009100"/><g fill="#ff8900"><path d="m152 0h30v333.941406h-30zm0 0"/><path d="m97.023438 0h30v333.941406h-30zm0 0"/><path d="m42.050781 0h30v333.941406h-30zm0 0"/></g><path d="m481.550781 350.550781h-141.609375v-30h45.796875c-6.539062-19.046875-24.648437-32.839843-45.796875-32.890625v-30c37.738282.0625 69.519532 27.140625 76.808594 62.890625h33.570312c-7.742187-53.980469-54.410156-95.71875-110.378906-95.777343v-30c37.617188.027343 73.027344 14.660156 99.707032 41.167968 26.703124 26.539063 41.550781 61.878906 41.800781 99.511719zm0 0" fill="#e67500"/><path d="m255.421875.00390625h213.257813v29.99999975h-213.257813zm0 0" fill="#008300"/><path d="m255.421875 63.441406h213.257813v30h-213.257813zm0 0" fill="#008300"/><path d="m512 320.550781v53.042969c0 25.277344-20.570312 45.847656-45.851562 45.847656h-420.296876c-25.28125 0-45.851562-20.570312-45.851562-45.847656v-53.042969zm0 0" fill="#ff633d"/><path d="m512 320.550781v53.042969c0 25.277344-20.570312 45.847656-45.851562 45.847656h-210.726563v-98.890625zm0 0" fill="#e70021"/></svg>