<?xml version="1.0" standalone="no"?><!DOCTYPE svg PUBLIC "-//W3C//DTD SVG 1.1//EN" "http://www.w3.org/Graphics/SVG/1.1/DTD/svg11.dtd"><svg class="icon" width="200px" height="200.00px" viewBox="0 0 1024 1024" version="1.1" xmlns="http://www.w3.org/2000/svg"><path d="M1008.963423 756.916935l-245.452559-245.452559 209.248307-208.327858a102.629851 102.629851 0 0 0 0-144.81701l-107.385495-107.385494a102.629851 102.629851 0 0 0-144.817009 0L511.921992 260.795951 266.929657 15.343393A50.62459 50.62459 0 0 0 230.111773 0.002608a51.238222 51.238222 0 0 0-36.204252 15.340785L15.340785 194.52376a51.084814 51.084814 0 0 0 0 72.408505l245.452558 245.452559-245.452558 245.452558a51.238222 51.238222 0 0 0-15.340785 35.283805v179.640591a51.238222 51.238222 0 0 0 51.238222 51.238222H230.111773a50.62459 50.62459 0 0 0 36.204253-15.340785l245.452558-245.452558 245.452559 245.452558a51.238222 51.238222 0 0 0 72.408504 0l179.333776-179.333775a50.62459 50.62459 0 0 0 15.340785-36.204253 51.238222 51.238222 0 0 0-15.340785-36.204252zM261.560383 942.080209l-33.442912-33.289504 603.813294-603.813293 33.289503 33.289503z m534.16613-673.30705L192.066627 872.586453l-40.65308-40.65308 603.813294-603.813294z m-2.607934-196.362046a50.931406 50.931406 0 0 1 36.204253 15.340785l107.385494 107.385494a51.238222 51.238222 0 0 1 0 72.408505l-35.130397 35.130397L721.937337 122.728887l34.97699-35.283805a51.238222 51.238222 0 0 1 36.204252-15.033969z m-107.385494 86.215211l33.289503 33.442911L115.209295 795.729121 81.919791 762.439617zM51.238222 230.114381L230.111773 51.240829l26.539558 26.386151L199.430204 135.461739a25.619111 25.619111 0 0 0 18.102126 43.721237 25.005479 25.005479 0 0 0 18.102126-7.516985l57.834759-57.834759 40.65308 40.65308-32.215648 32.215648a25.619111 25.619111 0 0 0 0 36.204253 25.005479 25.005479 0 0 0 18.102126 7.516984 25.312295 25.312295 0 0 0 17.488495-7.516984l32.215648-32.215649 40.499672 40.65308L352.838053 289.022995a25.312295 25.312295 0 0 0 0 36.204253 25.005479 25.005479 0 0 0 18.102126 7.516984 25.619111 25.619111 0 0 0 18.102126-7.516984l57.681351-57.681351L475.564332 296.233164 296.230556 475.56694z m0 573.43854l168.748633 168.748634h-168.748633z m741.880357 168.748634l-245.452558-245.452559 180.100815-178.720144 28.687267 28.687268-57.834759 57.834759a26.079334 26.079334 0 0 0-7.363576 18.102126 25.465703 25.465703 0 0 0 43.567829 18.102127L792.658356 613.634004l40.65308 40.65308-32.215649 32.215648a25.619111 25.619111 0 0 0 0 36.204253 25.619111 25.619111 0 0 0 36.204253 0l32.215648-32.215649 40.499672 40.65308-57.681351 57.681351a25.619111 25.619111 0 0 0-7.516985 18.102127 25.005479 25.005479 0 0 0 7.516985 18.102126 25.312295 25.312295 0 0 0 36.204252 0L946.219613 767.041853l26.539558 26.38615z" fill="#d4782c" /></svg>